<?xml version="1.0" encoding="utf-8"?>
	 <!-- Uploaded to: SVG Repo, www.svgrepo.com, Generator: SVG Repo Mixer Tools -->
<svg fill="#fb3822" width="400px" height="400px" viewBox="0 0 32 32" xmlns="http://www.w3.org/2000/svg">
    <g>
        <path d="M 16 0 C 7.2 0 0 7.2 0 16 C 0 24.8 7.2 32 16 32 S 32 24.8 32 16 S 24.8 0 16 0 Z M 16 3.2 
        C 21.6 3.2 28.8 8.8 28.8 16 S 23.2 28.8 16 28.8 S 3.2 23.2 3.2 16 S 8.8 3.2 16 3.2 Z"/>
        <path d="M 16 14.2 L 22.2 8 L 24 9.7 L 17.8 16 L 24 22.2 L 22.2 24 L 16 17.7 L 9.8 24 L 8 22.2 L 14.2 16 L 8 9.7 L 9.8 8 L 16 14.2 Z"/>
    </g>
</svg>