<?xml version="1.0" encoding="utf-8"?>
	 <!-- Uploaded to: SVG Repo, www.svgrepo.com, Generator: SVG Repo Mixer Tools -->
<svg fill="#3133d1" width="400px" height="400px" viewBox="0 0 32 32" xmlns="http://www.w3.org/2000/svg">
	<g>
		<path d="M 16 32 C 7.18 32 0 24.82 0 16 S 7.18 0 16 0 C 24.82 0 32 7.18 32 16 S 24.82 32 16 32 Z M 
		16 3 C 8.83 3 3 8.83 3 16 S 8.83 29 16 29 S 29 23.17 29 16 S 23.17 3 16 3 Z"/>
		<path d="M 15.75 4.65 C 17.14 4.65 18.15 5.7 18.15 7.02 C 18.15 8.35 17.14 9.33 15.71 9.33 C 14.26 9.33 
		13.31 8.35 13.31 7.02 C 13.31 5.7 14.26 4.65 15.75 4.65 Z M 17.96 24.73 L 19.77 24.83 V 27.36 H 12.24 
		V 24.95 L 13.28 24.86 C 13.85 24.8 14.2 24.61 14.2 23.85 V 15.05 C 14.2 14.35 14.01 14.13 13.41 14.13 
		L 12.3 14.07 V 11.44 H 17.97 L 17.96 24.73 L 17.96 24.73 Z"/>
	</g>
</svg>