<?xml version="1.0" encoding="utf-8"?>
	 <!-- Uploaded to: SVG Repo, www.svgrepo.com, Generator: SVG Repo Mixer Tools -->
<svg fill="#3133d1" width="500px" height="500px" viewBox="0 0 32 32" xmlns="http://www.w3.org/2000/svg">
	<g>
		<path d="M 16 0 C 7.2 0 0 7.2 0 16 C 0 24.8 7.2 32 16 32 S 32 24.8 32 16 S 24.8 0 16 0 Z M 16 3.2 
        C 21.6 3.2 28.8 8.8 28.8 16 S 23.2 28.8 16 28.8 S 3.2 23.2 3.2 16 S 8.8 3.2 16 3.2 Z"/>
		<path d="M 15.54 6.5 C 14.67 6.51 13.84 6.62 13.1 6.83 C 12.35 7.04 11.64 7.39 11.04 7.82 C 10.52 8.2 10.03 
		8.68 9.65 9.18 C 8.98 10.07 8.62 11.04 8.52 12.17 C 8.51 12.24 8.51 12.31 8.51 12.31 C 8.51 12.31 11.98 12.74 
		12 12.74 C 12.01 12.74 12.02 12.7 12.04 12.59 C 12.35 11.3 12.92 10.43 13.79 9.9 C 14.48 9.49 15.36 9.32 
		16.31 9.43 C 16.75 9.48 17.14 9.58 17.49 9.75 C 17.92 9.96 18.32 10.29 18.6 10.68 C 18.85 11.02 18.99 
		11.41 19.04 11.85 C 19.05 11.97 19.05 12.25 19.03 12.37 C 18.99 12.66 18.92 12.91 18.79 13.17 C 18.66 
		13.43 18.55 13.57 18.35 13.78 C 18.02 14.11 17.52 14.55 16.62 15.28 C 16.04 15.75 15.65 16.1 15.32 
		16.46 C 14.53 17.29 14.17 17.91 13.95 18.81 C 13.81 19.4 13.75 20.02 13.77 20.92 C 13.77 21.14 13.78 
		21.36 13.78 21.39 V 21.46 H 17.24 L 17.25 21.08 C 17.26 20.56 17.28 20.22 17.34 19.89 C 17.43 19.37 
		17.57 19.09 17.97 18.64 C 18.23 18.35 18.56 18.04 19.08 17.61 C 19.84 16.97 20.38 16.49 20.88 15.99 
		C 21.67 15.2 22.07 14.67 22.37 14.04 C 22.6 13.55 22.72 13.05 22.76 12.52 C 22.77 12.39 22.77 12.04 
		22.76 11.88 C 22.69 10.75 22.26 9.76 21.46 8.84 C 21.33 8.7 21.01 8.38 20.87 8.25 C 20.08 7.55 19.16 
		7.07 18.06 6.79 C 17.39 6.62 16.74 6.53 15.92 6.51 C 15.79 6.51 15.67 6.5 15.54 6.5 Z M 13.79 23.08 V 26.6 H 17.31 V 23.08 H 13.79 Z"/>
	</g>
</svg>